<?xml version="1.0"?>
<svg version="1.1" xmlns="http://www.w3.org/2000/svg" xmlns:xlink="http://www.w3.org/1999/xlink" width="500" height="200">
    <desc iVinci="yes" version="4.6" gridStep="20" showGrid="no" snapToGrid="no" codePlatform="0"/>
    <g id="Layer1" name="Layer 1" opacity="1">
        <g id="Shape1">
            <desc shapeID="1" type="0" basicInfo-basicType="0" basicInfo-roundedRectRadius="12" basicInfo-polygonSides="6" basicInfo-starPoints="5" bounding="rect(-251,-101,502,202)" text="" font-familyName="" font-pixelSize="20" font-bold="0" font-underline="0" font-alignment="1" strokeStyle="0" markerStart="0" markerEnd="0" shadowEnabled="0" shadowOffsetX="0" shadowOffsetY="2" shadowBlur="4" shadowOpacity="160" blurEnabled="0" blurRadius="4" transform="matrix(0.933016,0,0,1.20297,246.033,104.443)" pers-center="0,0" pers-size="0,0" pers-start="0,0" pers-end="0,0" locked="0" mesh="" flag=""/>
            <path id="shapePath1" d="M11.8459,-17.0574 L480.22,-17.0574 L480.22,225.943 L11.8459,225.943 L11.8459,-17.0574 Z" style="stroke:none;fill-rule:evenodd;fill:#ffffff;fill-opacity:1;"/>
        </g>
        <g id="Shape2">
            <desc shapeID="2" type="0" basicInfo-basicType="0" basicInfo-roundedRectRadius="12" basicInfo-polygonSides="6" basicInfo-starPoints="5" bounding="rect(-106.399,-71.8585,212.798,143.717)" text="" font-familyName="" font-pixelSize="20" font-bold="0" font-underline="0" font-alignment="1" strokeStyle="0" markerStart="0" markerEnd="0" shadowEnabled="0" shadowOffsetX="0" shadowOffsetY="2" shadowBlur="4" shadowOpacity="160" blurEnabled="0" blurRadius="4" transform="matrix(1,0,0,1,123.843,68.0971)" pers-center="0,0" pers-size="0,0" pers-start="0,0" pers-end="0,0" locked="0" mesh="" flag=""/>
            <path id="shapePath2" d="M123.843,139.956 C65.081,139.956 17.4444,107.783 17.4444,68.0972 C17.4444,28.4106 65.081,-3.76147 123.843,-3.76147 C182.606,-3.76147 230.242,28.4106 230.242,68.0972 C230.242,107.783 182.606,139.956 123.843,139.956 M140.13,24.3328 C95.465,24.3328 59.2571,46.327 59.2571,73.4583 C59.2571,100.59 95.465,122.584 140.13,122.584 C184.794,122.584 217.756,107.547 217.756,73.4583 C217.756,39.3804 184.794,24.3328 140.13,24.3328 Z" style="stroke:none;fill-rule:evenodd;fill:url(#linearGradientFill2);fill-opacity:1;"/><defs><linearGradient id="linearGradientFill2" gradientUnits="userSpaceOnUse" x1="12.8459" y1="-16.0574" x2="13.8459" y2="-15.0574"><stop offset="0" stop-color="#cbced0" stop-opacity="1"/><stop offset="1" stop-color="#84838b" stop-opacity="1"/></linearGradient></defs>
        </g>
        <g id="Shape3">
            <desc shapeID="3" type="0" basicInfo-basicType="0" basicInfo-roundedRectRadius="12" basicInfo-polygonSides="6" basicInfo-starPoints="5" bounding="rect(-58.7258,-60.4292,117.452,120.858)" text="" font-familyName="" font-pixelSize="20" font-bold="0" font-underline="0" font-alignment="1" strokeStyle="0" markerStart="0" markerEnd="0" shadowEnabled="0" shadowOffsetX="0" shadowOffsetY="2" shadowBlur="4" shadowOpacity="160" blurEnabled="0" blurRadius="4" transform="matrix(1,0,0,1,163.844,101.288)" pers-center="0,0" pers-size="0,0" pers-start="0,0" pers-end="0,0" locked="0" mesh="" flag=""/>
            <path id="shapePath3" d="M179.485,107.537 C179.485,107.537 185.924,109.497 189.666,111.406 C190.964,112.068 193.21,113.39 194.83,115.126 C196.417,116.825 197.191,118.548 197.191,118.548 L222.57,161.698 L181.55,161.717 L162.368,125.392 C162.368,125.392 158.441,118.587 156.024,116.614 C154.008,114.968 153.148,114.382 151.154,114.382 C149.767,114.382 141.408,114.382 141.408,114.382 L141.416,161.691 L105.118,161.706 L105.118,40.8585 L178.009,40.8585 C178.009,40.8585 211.208,41.4623 211.208,73.3142 C211.208,105.166 179.485,107.537 179.485,107.537 M163.696,67.072 L141.722,67.0577 L141.711,87.6063 L163.696,87.5991 C163.696,87.5991 173.877,87.5673 173.877,77.1463 C173.877,66.5158 163.696,67.072 163.696,67.072 Z" style="stroke:none;fill-rule:evenodd;fill:url(#linearGradientFill3);fill-opacity:1;"/><defs><linearGradient id="linearGradientFill3" gradientUnits="userSpaceOnUse" x1="12.8459" y1="-16.0574" x2="13.8459" y2="-15.0574"><stop offset="0" stop-color="#276dc3" stop-opacity="1"/><stop offset="1" stop-color="#165caa" stop-opacity="1"/></linearGradient></defs>
        </g>
        <g id="Shape4">
            <desc shapeID="4" type="0" basicInfo-basicType="0" basicInfo-roundedRectRadius="12" basicInfo-polygonSides="6" basicInfo-starPoints="5" bounding="rect(-60.0795,-64.1329,120.159,128.266)" text="" font-familyName="" font-pixelSize="20" font-bold="0" font-underline="0" font-alignment="1" strokeStyle="0" markerStart="0" markerEnd="0" shadowEnabled="0" shadowOffsetX="0" shadowOffsetY="2" shadowBlur="4" shadowOpacity="160" blurEnabled="0" blurRadius="4" transform="matrix(1,0,0,1,293.596,102.776)" pers-center="0,0" pers-size="0,0" pers-start="0,0" pers-end="0,0" locked="0" mesh="" flag=""/>
            <path id="shapePath4" d="M233.516,38.6428 L353.675,38.6428 L353.675,166.909 L233.516,166.909 L233.516,38.6428 Z" style="stroke:none;fill-rule:nonzero;fill:#ffffff;fill-opacity:1;"/>
        </g>
        <g id="Shape5">
            <desc shapeID="5" type="0" basicInfo-basicType="0" basicInfo-roundedRectRadius="12" basicInfo-polygonSides="6" basicInfo-starPoints="5" bounding="rect(-53.7271,-57.3996,107.454,114.799)" text="" font-familyName="" font-pixelSize="20" font-bold="0" font-underline="0" font-alignment="1" strokeStyle="0" markerStart="0" markerEnd="0" shadowEnabled="0" shadowOffsetX="0" shadowOffsetY="2" shadowBlur="4" shadowOpacity="160" blurEnabled="0" blurRadius="4" transform="matrix(1,0,0,1,293.57,102.956)" pers-center="0,0" pers-size="0,0" pers-start="0,0" pers-end="0,0" locked="0" mesh="" flag=""/>
            <path id="shapePath5" d="M287.347,45.8802 C300.729,44.4175 314.739,47.8888 325.538,56.6327 C336.643,65.2347 344.507,78.5744 346.553,93.0984 C348.373,105.215 346.89,117.998 341.705,129.018 C332.537,148.275 312.56,160.905 292.333,160.337 C275.925,160.037 260.089,150.949 250.405,136.883 C243.185,126.819 239.545,114.019 239.862,101.4 C240.209,88.0114 245.128,74.8301 253.514,64.8636 C261.981,54.2257 274.35,47.343 287.347,45.8802 Z" style="stroke:none;fill-rule:nonzero;fill:#000000;fill-opacity:1;"/>
        </g>
        <g id="Shape6">
            <desc shapeID="6" type="0" basicInfo-basicType="0" basicInfo-roundedRectRadius="12" basicInfo-polygonSides="6" basicInfo-starPoints="5" bounding="rect(-44.1605,-47.1062,88.321,94.2124)" text="" font-familyName="" font-pixelSize="20" font-bold="0" font-underline="0" font-alignment="1" strokeStyle="0" markerStart="0" markerEnd="0" shadowEnabled="0" shadowOffsetX="0" shadowOffsetY="2" shadowBlur="4" shadowOpacity="160" blurEnabled="0" blurRadius="4" transform="matrix(1,0,0,1,293.587,102.858)" pers-center="0,0" pers-size="0,0" pers-start="0,0" pers-end="0,0" locked="0" mesh="" flag=""/>
            <path id="shapePath6" d="M290.978,55.8413 C301.327,55.159 311.931,58.3739 320.169,65.1583 C329.26,72.3412 335.59,83.4102 337.196,95.3799 C338.827,106.711 336.873,118.806 330.927,128.456 C324.54,138.745 314.314,146.217 303.029,148.886 C293.938,151.014 284.213,149.983 275.736,145.862 C265.172,140.71 256.597,131.065 252.368,119.516 C248.938,110.264 248.498,99.8119 251.1,90.2602 C254.322,78.2414 262.129,67.7182 272.289,61.5287 C277.996,58.1173 284.448,56.1961 290.978,55.8413 Z" style="stroke:none;fill-rule:nonzero;fill:#ffffff;fill-opacity:1;"/>
        </g>
        <g id="Shape7">
            <desc shapeID="7" type="0" basicInfo-basicType="0" basicInfo-roundedRectRadius="12" basicInfo-polygonSides="6" basicInfo-starPoints="5" bounding="rect(-3.19571,-3.41132,6.39142,6.82265)" text="" font-familyName="" font-pixelSize="20" font-bold="0" font-underline="0" font-alignment="1" strokeStyle="0" markerStart="0" markerEnd="0" shadowEnabled="0" shadowOffsetX="0" shadowOffsetY="2" shadowBlur="4" shadowOpacity="160" blurEnabled="0" blurRadius="4" transform="matrix(1,0,0,1,317.372,83.3993)" pers-center="0,0" pers-size="0,0" pers-start="0,0" pers-end="0,0" locked="0" mesh="" flag=""/>
            <path id="shapePath7" d="M314.176,79.988 C316.308,79.988 318.435,79.988 320.568,79.988 C320.568,82.264 320.568,84.5346 320.568,86.8106 C318.435,86.8106 316.308,86.8106 314.176,86.8106 C314.176,84.5346 314.176,82.264 314.176,79.988 Z" style="stroke:none;fill-rule:nonzero;fill:#000000;fill-opacity:1;"/>
        </g>
        <g id="Shape8">
            <desc shapeID="8" type="0" basicInfo-basicType="0" basicInfo-roundedRectRadius="12" basicInfo-polygonSides="6" basicInfo-starPoints="5" bounding="rect(-12.0861,-14.5642,24.1721,29.1284)" text="" font-familyName="" font-pixelSize="20" font-bold="0" font-underline="0" font-alignment="1" strokeStyle="0" markerStart="0" markerEnd="0" shadowEnabled="0" shadowOffsetX="0" shadowOffsetY="2" shadowBlur="4" shadowOpacity="160" blurEnabled="0" blurRadius="4" transform="matrix(1,0,0,1,273.372,105.034)" pers-center="0,0" pers-size="0,0" pers-start="0,0" pers-end="0,0" locked="0" mesh="" flag=""/>
            <path id="shapePath8" d="M266.384,92.2797 C272.305,89.1795 280.429,89.9327 284.847,95.5436 C283.41,97.1265 281.846,98.562 280.394,100.128 C278.993,97.1865 275.787,95.7347 272.795,96.1386 C271.308,96.3078 269.329,96.8372 269.124,98.7366 C269.278,100.287 270.883,100.707 272.054,101.056 C276.001,102.104 280.567,101.951 283.748,105.052 C285.681,106.826 285.629,109.806 285.246,112.267 C284.413,116.083 280.992,118.561 277.53,119.21 C271.875,120.291 265.305,119.237 261.286,114.489 C262.845,113.146 264.456,111.874 266.031,110.553 C267.687,112.731 270.229,113.921 272.836,113.97 C274.861,114.167 277.249,113.517 278.297,111.498 C278.844,110.592 278.18,109.593 277.382,109.216 C273.358,107.377 268.495,108.005 264.901,105.041 C260.928,101.897 262.089,94.5175 266.384,92.2797 Z" style="stroke:none;fill-rule:nonzero;fill:#000000;fill-opacity:1;"/>
        </g>
        <g id="Shape9">
            <desc shapeID="9" type="0" basicInfo-basicType="0" basicInfo-roundedRectRadius="12" basicInfo-polygonSides="6" basicInfo-starPoints="5" bounding="rect(-12.3288,-14.5589,24.6577,29.1177)" text="" font-familyName="" font-pixelSize="20" font-bold="0" font-underline="0" font-alignment="1" strokeStyle="0" markerStart="0" markerEnd="0" shadowEnabled="0" shadowOffsetX="0" shadowOffsetY="2" shadowBlur="4" shadowOpacity="160" blurEnabled="0" blurRadius="4" transform="matrix(1,0,0,1,299.122,105.044)" pers-center="0,0" pers-size="0,0" pers-start="0,0" pers-end="0,0" locked="0" mesh="" flag=""/>
            <path id="shapePath9" d="M293.775,91.9249 C297.87,89.9764 302.994,89.8563 306.854,92.4871 C308.925,93.868 310.188,96.2041 311.18,98.5183 C309.314,99.4189 307.457,100.336 305.591,101.242 C305.013,99.8556 304.292,98.4528 303.014,97.6778 C300.227,95.7183 296.198,97.0665 294.629,100.112 C292.905,103.436 293.064,107.874 295.14,110.985 C297.124,113.894 301.562,114.129 303.873,111.552 C304.891,110.592 305.443,109.238 306,107.95 C307.826,108.976 309.656,109.98 311.451,111.056 C309.953,114.865 307.048,118.244 303.162,119.194 C299.384,120.056 295.119,119.641 291.939,117.109 C288.293,114.325 286.632,109.336 286.805,104.67 C286.744,99.5171 289.239,94.1082 293.775,91.9249 Z" style="stroke:none;fill-rule:nonzero;fill:#000000;fill-opacity:1;"/>
        </g>
        <g id="Shape10">
            <desc shapeID="10" type="0" basicInfo-basicType="0" basicInfo-roundedRectRadius="12" basicInfo-polygonSides="6" basicInfo-starPoints="5" bounding="rect(-3.19571,-13.8512,6.39142,27.7024)" text="" font-familyName="" font-pixelSize="20" font-bold="0" font-underline="0" font-alignment="1" strokeStyle="0" markerStart="0" markerEnd="0" shadowEnabled="0" shadowOffsetX="0" shadowOffsetY="2" shadowBlur="4" shadowOpacity="160" blurEnabled="0" blurRadius="4" transform="matrix(1,0,0,1,317.372,105.026)" pers-center="0,0" pers-size="0,0" pers-start="0,0" pers-end="0,0" locked="0" mesh="" flag=""/>
            <path id="shapePath10" d="M314.176,91.1772 C316.308,91.1717 318.435,91.1772 320.568,91.1772 C320.568,100.407 320.568,109.642 320.568,118.877 C318.435,118.877 316.308,118.877 314.176,118.877 C314.176,109.642 314.176,100.412 314.176,91.1772 Z" style="stroke:none;fill-rule:nonzero;fill:#000000;fill-opacity:1;"/>
        </g>
        <g id="Shape11">
            <desc shapeID="11" type="0" basicInfo-basicType="0" basicInfo-roundedRectRadius="12" basicInfo-polygonSides="6" basicInfo-starPoints="5" bounding="rect(-51.5311,-55.7962,103.062,111.592)" text="" font-familyName="" font-pixelSize="20" font-bold="0" font-underline="0" font-alignment="1" strokeStyle="0" markerStart="0" markerEnd="0" shadowEnabled="0" shadowOffsetX="0" shadowOffsetY="2" shadowBlur="4" shadowOpacity="160" blurEnabled="0" blurRadius="4" transform="matrix(1,0,0,1,417.022,104.104)" pers-center="0,0" pers-size="0,0" pers-start="0,0" pers-end="0,0" locked="0" mesh="" flag=""/>
            <path id="shapePath11" d="M434.671,114.17 L417.14,64.8683 L398.509,114.17 L434.671,114.17 M408.964,48.308 L426.652,48.308 L468.553,159.9 L451.415,159.9 L439.702,126.476 L394.028,126.476 L381.528,159.9 L365.491,159.9 L408.964,48.308 Z" style="stroke:#323232;stroke-opacity:1;stroke-width:1;stroke-linejoin:miter;stroke-miterlimit:2;stroke-linecap:round;fill-rule:nonzero;fill:#007f00;fill-opacity:1;"/>
        </g>
        <g id="Shape12">
            <desc shapeID="12" type="2" basicInfo-basicType="0" basicInfo-roundedRectRadius="12" basicInfo-polygonSides="6" basicInfo-starPoints="5" bounding="rect(-196.97,-10.7049,393.941,21.4098)" text="R and Open Science Association" font-familyName="Lucida Grande" font-pixelSize="20" font-bold="1" font-underline="0" font-alignment="1" strokeStyle="0" markerStart="0" markerEnd="0" shadowEnabled="0" shadowOffsetX="0" shadowOffsetY="2" shadowBlur="4" shadowOpacity="160" blurEnabled="0" blurRadius="4" transform="matrix(1,0,0,1,249.355,200.717)" pers-center="0,0" pers-size="0,0" pers-start="0,0" pers-end="0,0" locked="0" mesh="" flag=""/>
            <path id="shapePath12" d="M87.1619,208.342 L87.1619,193.889 L92.572,193.889 C95.5082,193.889 96.9763,195.084 96.9763,197.473 C96.9763,198.365 96.7273,199.177 96.2292,199.91 C95.7312,200.642 95.046,201.203 94.1736,201.594 L98.9001,208.342 L95.238,208.342 L91.6541,202.434 L89.9939,202.434 L89.9939,208.342 L87.1619,208.342 M89.9939,200.451 L90.6873,200.451 C92.8682,200.451 93.9587,199.569 93.9587,197.805 C93.9587,196.516 92.9854,195.871 91.0388,195.871 L89.9939,195.871 L89.9939,200.451 M112.791,207.19 C111.827,208.121 110.795,208.586 109.695,208.586 C108.758,208.586 107.996,208.3 107.41,207.727 C106.824,207.154 106.531,206.412 106.531,205.5 C106.531,204.315 107.005,203.402 107.952,202.761 C108.899,202.12 110.255,201.799 112.019,201.799 L112.791,201.799 L112.791,200.823 C112.791,199.709 112.156,199.153 110.886,199.153 C109.76,199.153 108.621,199.472 107.469,200.11 L107.469,198.118 C108.777,197.623 110.073,197.375 111.355,197.375 C114.161,197.375 115.564,198.492 115.564,200.725 L115.564,205.471 C115.564,206.311 115.834,206.731 116.375,206.731 C116.472,206.731 116.599,206.718 116.756,206.692 L116.824,208.313 C116.212,208.495 115.672,208.586 115.203,208.586 C114.018,208.586 113.256,208.121 112.918,207.19 L112.791,207.19 M112.791,205.637 L112.791,203.459 L112.107,203.459 C110.239,203.459 109.304,204.045 109.304,205.217 C109.304,205.614 109.44,205.948 109.71,206.218 C109.98,206.488 110.314,206.623 110.711,206.623 C111.388,206.623 112.081,206.295 112.791,205.637 M119.287,208.342 L119.287,197.619 L122.177,197.619 L122.177,199.641 C123.121,198.131 124.339,197.375 125.83,197.375 C126.787,197.375 127.542,197.678 128.095,198.284 C128.649,198.889 128.926,199.716 128.926,200.764 L128.926,208.342 L126.035,208.342 L126.035,201.477 C126.035,200.259 125.631,199.651 124.824,199.651 C123.906,199.651 123.024,200.298 122.177,201.594 L122.177,208.342 L119.287,208.342 M139.16,208.342 L139.16,206.321 C138.418,207.831 137.249,208.586 135.654,208.586 C134.365,208.586 133.353,208.114 132.617,207.17 C131.881,206.226 131.513,204.927 131.513,203.274 C131.513,201.477 131.928,200.045 132.759,198.977 C133.589,197.909 134.704,197.375 136.103,197.375 C137.223,197.375 138.242,197.818 139.16,198.703 L139.16,192.922 L142.06,192.922 L142.06,208.342 L139.16,208.342 M139.16,200.422 C138.463,199.641 137.718,199.25 136.924,199.25 C136.214,199.25 135.648,199.592 135.224,200.276 C134.801,200.959 134.59,201.877 134.59,203.03 C134.59,205.224 135.293,206.321 136.699,206.321 C137.558,206.321 138.379,205.771 139.16,204.67 L139.16,200.422 M158.578,208.703 C156.384,208.703 154.629,208.013 153.314,206.633 C151.999,205.253 151.342,203.414 151.342,201.116 C151.342,198.791 152.002,196.946 153.324,195.578 C154.646,194.211 156.429,193.528 158.676,193.528 C160.909,193.528 162.688,194.211 164.012,195.578 C165.337,196.946 166,198.782 166,201.086 C166,203.443 165.337,205.302 164.012,206.662 C162.688,208.023 160.876,208.703 158.578,208.703 M158.617,206.711 C159.906,206.711 160.927,206.205 161.678,205.193 C162.43,204.18 162.806,202.808 162.806,201.076 C162.806,199.397 162.429,198.049 161.674,197.034 C160.918,196.018 159.919,195.51 158.676,195.51 C157.419,195.51 156.415,196.018 155.663,197.034 C154.911,198.049 154.535,199.407 154.535,201.106 C154.535,202.792 154.909,204.148 155.658,205.173 C156.407,206.199 157.393,206.711 158.617,206.711 M168.693,212.2 L168.693,197.619 L171.584,197.619 L171.584,199.641 C172.326,198.131 173.495,197.375 175.09,197.375 C176.379,197.375 177.393,197.847 178.132,198.791 C178.871,199.735 179.24,201.034 179.24,202.688 C179.24,204.485 178.823,205.917 177.99,206.985 C177.157,208.052 176.04,208.586 174.64,208.586 C173.514,208.586 172.495,208.144 171.584,207.258 L171.584,212.2 L168.693,212.2 M171.584,205.539 C172.287,206.321 173.036,206.711 173.83,206.711 C174.539,206.711 175.106,206.368 175.529,205.681 C175.952,204.994 176.164,204.078 176.164,202.932 C176.164,200.738 175.457,199.641 174.045,199.641 C173.192,199.641 172.371,200.191 171.584,201.291 L171.584,205.539 M190.674,207.981 C189.3,208.384 187.998,208.586 186.767,208.586 C184.977,208.586 183.564,208.078 182.529,207.063 C181.494,206.047 180.976,204.66 180.976,202.903 C180.976,201.243 181.45,199.906 182.397,198.894 C183.344,197.882 184.596,197.375 186.152,197.375 C187.721,197.375 188.867,197.87 189.59,198.86 C190.312,199.849 190.674,201.415 190.674,203.557 L184.023,203.557 C184.219,205.601 185.342,206.623 187.392,206.623 C188.362,206.623 189.456,206.399 190.674,205.95 L190.674,207.981 M183.984,201.926 L187.832,201.926 C187.832,200.097 187.243,199.182 186.064,199.182 C184.866,199.182 184.173,200.097 183.984,201.926 M193.662,208.342 L193.662,197.619 L196.552,197.619 L196.552,199.641 C197.497,198.131 198.714,197.375 200.205,197.375 C201.162,197.375 201.917,197.678 202.47,198.284 C203.024,198.889 203.301,199.716 203.301,200.764 L203.301,208.342 L200.41,208.342 L200.41,201.477 C200.41,200.259 200.006,199.651 199.199,199.651 C198.281,199.651 197.399,200.298 196.552,201.594 L196.552,208.342 L193.662,208.342 M212.554,208.215 L212.554,205.735 C214.11,206.386 215.442,206.711 216.549,206.711 C217.323,206.711 217.934,206.539 218.38,206.194 C218.826,205.849 219.049,205.38 219.049,204.787 C219.049,204.319 218.909,203.923 218.629,203.601 C218.349,203.279 217.818,202.896 217.037,202.453 L216.07,201.916 C214.774,201.187 213.86,200.489 213.326,199.822 C212.792,199.154 212.525,198.375 212.525,197.483 C212.525,196.291 212.963,195.334 213.839,194.612 C214.714,193.889 215.872,193.528 217.31,193.528 C218.463,193.528 219.761,193.694 221.207,194.026 L221.207,196.34 C219.729,195.787 218.56,195.51 217.701,195.51 C217.037,195.51 216.505,195.658 216.104,195.954 C215.704,196.251 215.504,196.64 215.504,197.121 C215.504,197.519 215.644,197.867 215.924,198.166 C216.204,198.466 216.731,198.834 217.506,199.27 L218.541,199.846 C219.934,200.627 220.894,201.347 221.422,202.004 C221.949,202.662 222.213,203.463 222.213,204.407 C222.213,205.748 221.715,206.799 220.719,207.561 C219.722,208.323 218.349,208.703 216.597,208.703 C215.439,208.703 214.091,208.541 212.554,208.215 M232.697,208.108 C231.499,208.427 230.389,208.586 229.367,208.586 C227.655,208.586 226.302,208.083 225.309,207.077 C224.316,206.072 223.82,204.703 223.82,202.971 C223.82,201.22 224.331,199.849 225.353,198.86 C226.375,197.87 227.788,197.375 229.592,197.375 C230.464,197.375 231.47,197.515 232.609,197.795 L232.609,199.885 C231.424,199.501 230.477,199.309 229.767,199.309 C228.901,199.309 228.205,199.641 227.677,200.305 C227.15,200.969 226.886,201.851 226.886,202.951 C226.886,204.078 227.171,204.979 227.741,205.657 C228.311,206.334 229.071,206.672 230.021,206.672 C230.887,206.672 231.779,206.483 232.697,206.106 L232.697,208.108 M235.427,208.342 L235.427,197.619 L238.318,197.619 L238.318,208.342 L235.427,208.342 M235.427,195.813 L235.427,193.401 L238.318,193.401 L238.318,195.813 L235.427,195.813 M250.658,207.981 C249.284,208.384 247.982,208.586 246.752,208.586 C244.961,208.586 243.549,208.078 242.513,207.063 C241.478,206.047 240.961,204.66 240.961,202.903 C240.961,201.243 241.434,199.906 242.382,198.894 C243.329,197.882 244.58,197.375 246.136,197.375 C247.705,197.375 248.851,197.87 249.574,198.86 C250.297,199.849 250.658,201.415 250.658,203.557 L244.008,203.557 C244.203,205.601 245.326,206.623 247.377,206.623 C248.347,206.623 249.441,206.399 250.658,205.95 L250.658,207.981 M243.969,201.926 L247.816,201.926 C247.816,200.097 247.227,199.182 246.049,199.182 C244.851,199.182 244.157,200.097 243.969,201.926 M253.646,208.342 L253.646,197.619 L256.537,197.619 L256.537,199.641 C257.481,198.131 258.698,197.375 260.189,197.375 C261.146,197.375 261.901,197.678 262.455,198.284 C263.008,198.889 263.285,199.716 263.285,200.764 L263.285,208.342 L260.394,208.342 L260.394,201.477 C260.394,200.259 259.991,199.651 259.183,199.651 C258.265,199.651 257.383,200.298 256.537,201.594 L256.537,208.342 L253.646,208.342 M274.681,208.108 C273.483,208.427 272.373,208.586 271.351,208.586 C269.639,208.586 268.287,208.083 267.294,207.077 C266.301,206.072 265.804,204.703 265.804,202.971 C265.804,201.22 266.316,199.849 267.338,198.86 C268.36,197.87 269.773,197.375 271.576,197.375 C272.448,197.375 273.454,197.515 274.594,197.795 L274.594,199.885 C273.409,199.501 272.461,199.309 271.752,199.309 C270.886,199.309 270.189,199.641 269.662,200.305 C269.135,200.969 268.871,201.851 268.871,202.951 C268.871,204.078 269.156,204.979 269.725,205.657 C270.295,206.334 271.055,206.672 272.006,206.672 C272.871,206.672 273.763,206.483 274.681,206.106 L274.681,208.108 M286.142,207.981 C284.769,208.384 283.467,208.586 282.236,208.586 C280.446,208.586 279.033,208.078 277.998,207.063 C276.963,206.047 276.445,204.66 276.445,202.903 C276.445,201.243 276.919,199.906 277.866,198.894 C278.813,197.882 280.065,197.375 281.621,197.375 C283.19,197.375 284.336,197.87 285.058,198.86 C285.781,199.849 286.142,201.415 286.142,203.557 L279.492,203.557 C279.687,205.601 280.81,206.623 282.861,206.623 C283.831,206.623 284.925,206.399 286.142,205.95 L286.142,207.981 M279.453,201.926 L283.301,201.926 C283.301,200.097 282.711,199.182 281.533,199.182 C280.335,199.182 279.642,200.097 279.453,201.926 M294.127,208.342 L299.752,193.889 L302.76,193.889 L308.385,208.342 L305.299,208.342 L303.795,204.485 L297.818,204.485 L296.314,208.342 L294.127,208.342 M298.56,202.561 L303.052,202.561 L300.806,196.799 L298.56,202.561 M310.144,208 L310.144,205.881 C311.577,206.48 312.801,206.78 313.816,206.78 C315.001,206.78 315.594,206.376 315.594,205.569 C315.594,205.048 315.105,204.592 314.129,204.201 L313.152,203.811 C312.091,203.381 311.332,202.919 310.877,202.424 C310.421,201.929 310.193,201.317 310.193,200.588 C310.193,199.573 310.58,198.783 311.355,198.22 C312.13,197.657 313.214,197.375 314.607,197.375 C315.48,197.375 316.518,197.502 317.722,197.756 L317.722,199.787 C316.564,199.384 315.603,199.182 314.842,199.182 C313.644,199.182 313.045,199.553 313.045,200.295 C313.045,200.784 313.487,201.197 314.373,201.535 L315.213,201.858 C316.469,202.333 317.343,202.815 317.835,203.303 C318.326,203.791 318.572,204.42 318.572,205.188 C318.572,206.197 318.154,207.016 317.317,207.644 C316.481,208.272 315.392,208.586 314.051,208.586 C312.761,208.586 311.459,208.391 310.144,208 M321.441,208 L321.441,205.881 C322.873,206.48 324.097,206.78 325.113,206.78 C326.298,206.78 326.89,206.376 326.89,205.569 C326.89,205.048 326.402,204.592 325.426,204.201 L324.449,203.811 C323.388,203.381 322.629,202.919 322.174,202.424 C321.718,201.929 321.49,201.317 321.49,200.588 C321.49,199.573 321.877,198.783 322.652,198.22 C323.427,197.657 324.511,197.375 325.904,197.375 C326.776,197.375 327.815,197.502 329.019,197.756 L329.019,199.787 C327.86,199.384 326.9,199.182 326.138,199.182 C324.941,199.182 324.342,199.553 324.342,200.295 C324.342,200.784 324.784,201.197 325.67,201.535 L326.51,201.858 C327.766,202.333 328.64,202.815 329.132,203.303 C329.623,203.791 329.869,204.42 329.869,205.188 C329.869,206.197 329.451,207.016 328.614,207.644 C327.777,208.272 326.689,208.586 325.347,208.586 C324.058,208.586 322.756,208.391 321.441,208 M337.523,208.586 C335.85,208.586 334.52,208.08 333.534,207.068 C332.548,206.055 332.054,204.693 332.054,202.981 C332.054,201.249 332.551,199.882 333.544,198.879 C334.537,197.877 335.886,197.375 337.592,197.375 C339.304,197.375 340.656,197.877 341.649,198.879 C342.642,199.882 343.138,201.243 343.138,202.961 C343.138,204.719 342.64,206.096 341.644,207.092 C340.648,208.088 339.275,208.586 337.523,208.586 M337.572,206.78 C339.232,206.78 340.062,205.507 340.062,202.961 C340.062,201.796 339.843,200.875 339.403,200.198 C338.964,199.521 338.36,199.182 337.592,199.182 C336.83,199.182 336.229,199.521 335.79,200.198 C335.35,200.875 335.131,201.802 335.131,202.981 C335.131,204.146 335.349,205.071 335.785,205.754 C336.221,206.438 336.817,206.78 337.572,206.78 M353.697,208.108 C352.499,208.427 351.389,208.586 350.367,208.586 C348.655,208.586 347.302,208.083 346.309,207.077 C345.316,206.072 344.82,204.703 344.82,202.971 C344.82,201.22 345.331,199.849 346.353,198.86 C347.375,197.87 348.788,197.375 350.592,197.375 C351.464,197.375 352.47,197.515 353.609,197.795 L353.609,199.885 C352.424,199.501 351.477,199.309 350.767,199.309 C349.901,199.309 349.205,199.641 348.677,200.305 C348.15,200.969 347.886,201.851 347.886,202.951 C347.886,204.078 348.171,204.979 348.741,205.657 C349.311,206.334 350.071,206.672 351.021,206.672 C351.887,206.672 352.779,206.483 353.697,206.106 L353.697,208.108 M356.427,208.342 L356.427,197.619 L359.318,197.619 L359.318,208.342 L356.427,208.342 M356.427,195.813 L356.427,193.401 L359.318,193.401 L359.318,195.813 L356.427,195.813 M368.181,207.19 C367.218,208.121 366.186,208.586 365.086,208.586 C364.148,208.586 363.386,208.3 362.801,207.727 C362.215,207.154 361.922,206.412 361.922,205.5 C361.922,204.315 362.395,203.402 363.343,202.761 C364.29,202.12 365.646,201.799 367.41,201.799 L368.181,201.799 L368.181,200.823 C368.181,199.709 367.547,199.153 366.277,199.153 C365.151,199.153 364.011,199.472 362.859,200.11 L362.859,198.118 C364.168,197.623 365.463,197.375 366.746,197.375 C369.552,197.375 370.955,198.492 370.955,200.725 L370.955,205.471 C370.955,206.311 371.225,206.731 371.765,206.731 C371.863,206.731 371.99,206.718 372.146,206.692 L372.215,208.313 C371.603,208.495 371.062,208.586 370.594,208.586 C369.409,208.586 368.647,208.121 368.308,207.19 L368.181,207.19 M368.181,205.637 L368.181,203.459 L367.498,203.459 C365.629,203.459 364.695,204.045 364.695,205.217 C364.695,205.614 364.83,205.948 365.1,206.218 C365.371,206.488 365.704,206.623 366.101,206.623 C366.778,206.623 367.472,206.295 368.181,205.637 M380.205,208.284 C379.515,208.485 378.971,208.586 378.574,208.586 C376.067,208.586 374.814,207.414 374.814,205.071 L374.814,199.426 L373.613,199.426 L373.613,197.619 L374.814,197.619 L374.814,195.813 L377.705,195.481 L377.705,197.619 L380,197.619 L380,199.426 L377.705,199.426 L377.705,204.69 C377.705,206.005 378.242,206.662 379.316,206.662 C379.564,206.662 379.86,206.617 380.205,206.526 L380.205,208.284 M382.771,208.342 L382.771,197.619 L385.662,197.619 L385.662,208.342 L382.771,208.342 M382.771,195.813 L382.771,193.401 L385.662,193.401 L385.662,195.813 L382.771,195.813 M393.773,208.586 C392.1,208.586 390.77,208.08 389.784,207.068 C388.798,206.055 388.304,204.693 388.304,202.981 C388.304,201.249 388.801,199.882 389.794,198.879 C390.787,197.877 392.136,197.375 393.842,197.375 C395.554,197.375 396.906,197.877 397.899,198.879 C398.892,199.882 399.388,201.243 399.388,202.961 C399.388,204.719 398.89,206.096 397.894,207.092 C396.898,208.088 395.524,208.586 393.773,208.586 M393.822,206.78 C395.482,206.78 396.312,205.507 396.312,202.961 C396.312,201.796 396.093,200.875 395.653,200.198 C395.214,199.521 394.61,199.182 393.842,199.182 C393.08,199.182 392.479,199.521 392.04,200.198 C391.6,200.875 391.381,201.802 391.381,202.981 C391.381,204.146 391.599,205.071 392.035,205.754 C392.471,206.438 393.067,206.78 393.822,206.78 M402.037,208.342 L402.037,197.619 L404.927,197.619 L404.927,199.641 C405.872,198.131 407.089,197.375 408.58,197.375 C409.537,197.375 410.292,197.678 410.845,198.284 C411.399,198.889 411.676,199.716 411.676,200.764 L411.676,208.342 L408.785,208.342 L408.785,201.477 C408.785,200.259 408.381,199.651 407.574,199.651 C406.656,199.651 405.774,200.298 404.927,201.594 L404.927,208.342 L402.037,208.342 Z" style="stroke:none;fill-rule:nonzero;fill:#000000;fill-opacity:1;"/>
        </g>
    </g>
</svg>
