<?xml version="1.0"?>
<svg version="1.1" xmlns="http://www.w3.org/2000/svg" xmlns:xlink="http://www.w3.org/1999/xlink" width="500" height="230">
    <desc iVinci="yes" version="4.6" gridStep="20" showGrid="no" snapToGrid="no" codePlatform="0"/>
    <g id="Layer1" name="Layer 1" opacity="1">
        <g id="Shape1">
            <desc shapeID="1" type="0" basicInfo-basicType="0" basicInfo-roundedRectRadius="12" basicInfo-polygonSides="6" basicInfo-starPoints="5" bounding="rect(-106.399,-71.8587,212.798,143.717)" text="" font-familyName="" font-pixelSize="20" font-bold="0" font-underline="0" font-alignment="1" strokeStyle="0" markerStart="0" markerEnd="0" shadowEnabled="0" shadowOffsetX="0" shadowOffsetY="2" shadowBlur="4" shadowOpacity="160" blurEnabled="0" blurRadius="4" transform="matrix(1,0,0,1,114.804,80.2943)" pers-center="0,0" pers-size="0,0" pers-start="0,0" pers-end="0,0" locked="0" mesh="" flag=""/>
            <path id="shapePath1" d="M114.804,152.153 C56.0422,152.153 8.40558,119.98 8.40558,80.2942 C8.40558,40.6076 56.0422,8.43552 114.804,8.43552 C173.567,8.43552 221.203,40.6076 221.203,80.2942 C221.203,119.98 173.567,152.153 114.804,152.153 M131.091,36.5298 C86.4262,36.5298 50.2183,58.524 50.2183,85.6553 C50.2183,112.787 86.4262,134.781 131.091,134.781 C175.755,134.781 208.717,119.744 208.717,85.6553 C208.717,51.5774 175.755,36.5298 131.091,36.5298 Z" style="stroke:none;fill-rule:evenodd;fill:url(#linearGradientFill1);fill-opacity:1;"/><defs><linearGradient id="linearGradientFill1" gradientUnits="userSpaceOnUse" x1="3.80728" y1="-3.86024" x2="4.80728" y2="-2.86024"><stop offset="0" stop-color="#cbced0" stop-opacity="1"/><stop offset="1" stop-color="#84838b" stop-opacity="1"/></linearGradient></defs>
        </g>
        <g id="Shape2">
            <desc shapeID="2" type="0" basicInfo-basicType="0" basicInfo-roundedRectRadius="12" basicInfo-polygonSides="6" basicInfo-starPoints="5" bounding="rect(-58.7258,-60.4294,117.452,120.858)" text="" font-familyName="" font-pixelSize="20" font-bold="0" font-underline="0" font-alignment="1" strokeStyle="0" markerStart="0" markerEnd="0" shadowEnabled="0" shadowOffsetX="0" shadowOffsetY="2" shadowBlur="4" shadowOpacity="160" blurEnabled="0" blurRadius="4" transform="matrix(1,0,0,1,154.805,113.485)" pers-center="0,0" pers-size="0,0" pers-start="0,0" pers-end="0,0" locked="0" mesh="" flag=""/>
            <path id="shapePath2" d="M170.446,119.734 C170.446,119.734 176.885,121.694 180.627,123.603 C181.925,124.265 184.171,125.587 185.791,127.323 C187.378,129.022 188.152,130.745 188.152,130.745 L213.531,173.895 L172.511,173.914 L153.329,137.589 C153.329,137.589 149.402,130.784 146.985,128.811 C144.969,127.165 144.109,126.579 142.115,126.579 C140.728,126.579 132.369,126.579 132.369,126.579 L132.377,173.888 L96.0792,173.903 L96.0792,53.0555 L168.97,53.0555 C168.97,53.0555 202.169,53.6593 202.169,85.5112 C202.169,117.363 170.446,119.734 170.446,119.734 M154.657,79.269 L132.683,79.2547 L132.672,99.8033 L154.657,99.7961 C154.657,99.7961 164.838,99.7643 164.838,89.3433 C164.838,78.7128 154.657,79.269 154.657,79.269 Z" style="stroke:none;fill-rule:evenodd;fill:url(#linearGradientFill2);fill-opacity:1;"/><defs><linearGradient id="linearGradientFill2" gradientUnits="userSpaceOnUse" x1="3.80688" y1="-3.86045" x2="4.80688" y2="-2.86045"><stop offset="0" stop-color="#276dc3" stop-opacity="1"/><stop offset="1" stop-color="#165caa" stop-opacity="1"/></linearGradient></defs>
        </g>
        <g id="Shape3">
            <desc shapeID="3" type="0" basicInfo-basicType="0" basicInfo-roundedRectRadius="12" basicInfo-polygonSides="6" basicInfo-starPoints="5" bounding="rect(-60.0795,-64.133,120.159,128.266)" text="" font-familyName="" font-pixelSize="20" font-bold="0" font-underline="0" font-alignment="1" strokeStyle="0" markerStart="0" markerEnd="0" shadowEnabled="0" shadowOffsetX="0" shadowOffsetY="2" shadowBlur="4" shadowOpacity="160" blurEnabled="0" blurRadius="4" transform="matrix(1,0,0,1,293.595,109.781)" pers-center="0,0" pers-size="0,0" pers-start="0,0" pers-end="0,0" locked="0" mesh="" flag=""/>
            <path id="shapePath3" d="M233.516,45.6478 L353.675,45.6478 L353.675,173.914 L233.516,173.914 L233.516,45.6478 Z" style="stroke:none;fill-rule:evenodd;fill:#ffffff;fill-opacity:1;"/>
        </g>
        <g id="Shape4">
            <desc shapeID="4" type="0" basicInfo-basicType="0" basicInfo-roundedRectRadius="12" basicInfo-polygonSides="6" basicInfo-starPoints="5" bounding="rect(-53.7271,-57.3998,107.454,114.799)" text="" font-familyName="" font-pixelSize="20" font-bold="0" font-underline="0" font-alignment="1" strokeStyle="0" markerStart="0" markerEnd="0" shadowEnabled="0" shadowOffsetX="0" shadowOffsetY="2" shadowBlur="4" shadowOpacity="160" blurEnabled="0" blurRadius="4" transform="matrix(1,0,0,1,293.57,109.961)" pers-center="0,0" pers-size="0,0" pers-start="0,0" pers-end="0,0" locked="0" mesh="" flag=""/>
            <path id="shapePath4" d="M287.347,52.8852 C300.729,51.4225 314.739,54.8938 325.538,63.6377 C336.643,72.2397 344.507,85.5794 346.553,100.103 C348.373,112.22 346.89,125.003 341.705,136.023 C332.537,155.28 312.56,167.91 292.333,167.342 C275.925,167.042 260.089,157.954 250.405,143.888 C243.185,133.824 239.545,121.024 239.862,108.405 C240.209,95.0164 245.128,81.8351 253.514,71.8686 C261.981,61.2307 274.35,54.348 287.347,52.8852 Z" style="stroke:none;fill-rule:evenodd;fill:#000000;fill-opacity:1;"/>
        </g>
        <g id="Shape5">
            <desc shapeID="5" type="0" basicInfo-basicType="0" basicInfo-roundedRectRadius="12" basicInfo-polygonSides="6" basicInfo-starPoints="5" bounding="rect(-44.1606,-47.1061,88.3211,94.2123)" text="" font-familyName="" font-pixelSize="20" font-bold="0" font-underline="0" font-alignment="1" strokeStyle="0" markerStart="0" markerEnd="0" shadowEnabled="0" shadowOffsetX="0" shadowOffsetY="2" shadowBlur="4" shadowOpacity="160" blurEnabled="0" blurRadius="4" transform="matrix(1,0,0,1,293.587,109.863)" pers-center="0,0" pers-size="0,0" pers-start="0,0" pers-end="0,0" locked="0" mesh="" flag=""/>
            <path id="shapePath5" d="M290.978,62.8463 C301.327,62.164 311.931,65.3789 320.169,72.1633 C329.26,79.3462 335.59,90.4152 337.196,102.385 C338.827,113.716 336.873,125.811 330.927,135.461 C324.54,145.75 314.314,153.222 303.029,155.891 C293.938,158.019 284.213,156.988 275.736,152.867 C265.172,147.715 256.597,138.07 252.368,126.521 C248.938,117.269 248.498,106.817 251.1,97.2652 C254.322,85.2464 262.129,74.7232 272.289,68.5337 C277.996,65.1223 284.448,63.2011 290.978,62.8463 Z" style="stroke:none;fill-rule:evenodd;fill:#ffffff;fill-opacity:1;"/>
        </g>
        <g id="Shape6">
            <desc shapeID="6" type="0" basicInfo-basicType="0" basicInfo-roundedRectRadius="12" basicInfo-polygonSides="6" basicInfo-starPoints="5" bounding="rect(-3.196,-3.4113,6.392,6.8226)" text="" font-familyName="" font-pixelSize="20" font-bold="0" font-underline="0" font-alignment="1" strokeStyle="0" markerStart="0" markerEnd="0" shadowEnabled="0" shadowOffsetX="0" shadowOffsetY="2" shadowBlur="4" shadowOpacity="160" blurEnabled="0" blurRadius="4" transform="matrix(1,0,0,1,317.372,90.4043)" pers-center="0,0" pers-size="0,0" pers-start="0,0" pers-end="0,0" locked="0" mesh="" flag=""/>
            <path id="shapePath6" d="M314.176,86.993 C316.308,86.993 318.435,86.993 320.568,86.993 C320.568,89.269 320.568,91.5396 320.568,93.8156 C318.435,93.8156 316.308,93.8156 314.176,93.8156 C314.176,91.5396 314.176,89.269 314.176,86.993 Z" style="stroke:none;fill-rule:evenodd;fill:#000000;fill-opacity:1;"/>
        </g>
        <g id="Shape7">
            <desc shapeID="7" type="0" basicInfo-basicType="0" basicInfo-roundedRectRadius="12" basicInfo-polygonSides="6" basicInfo-starPoints="5" bounding="rect(-12.0859,-14.5642,24.1718,29.1284)" text="" font-familyName="" font-pixelSize="20" font-bold="0" font-underline="0" font-alignment="1" strokeStyle="0" markerStart="0" markerEnd="0" shadowEnabled="0" shadowOffsetX="0" shadowOffsetY="2" shadowBlur="4" shadowOpacity="160" blurEnabled="0" blurRadius="4" transform="matrix(1,0,0,1,273.372,112.039)" pers-center="0,0" pers-size="0,0" pers-start="0,0" pers-end="0,0" locked="0" mesh="" flag=""/>
            <path id="shapePath7" d="M266.384,99.2847 C272.305,96.1845 280.429,96.9377 284.847,102.549 C283.41,104.132 281.846,105.567 280.394,107.133 C278.993,104.192 275.787,102.74 272.795,103.144 C271.308,103.313 269.329,103.842 269.124,105.742 C269.278,107.292 270.883,107.712 272.054,108.061 C276.001,109.109 280.567,108.956 283.748,112.057 C285.681,113.831 285.629,116.811 285.246,119.272 C284.413,123.088 280.992,125.566 277.53,126.215 C271.875,127.296 265.305,126.242 261.286,121.494 C262.845,120.151 264.456,118.879 266.031,117.558 C267.687,119.736 270.229,120.926 272.836,120.975 C274.861,121.172 277.249,120.522 278.297,118.503 C278.844,117.597 278.18,116.598 277.382,116.221 C273.358,114.382 268.495,115.01 264.901,112.046 C260.928,108.902 262.089,101.523 266.384,99.2847 Z" style="stroke:none;fill-rule:evenodd;fill:#000000;fill-opacity:1;"/>
        </g>
        <g id="Shape8">
            <desc shapeID="8" type="0" basicInfo-basicType="0" basicInfo-roundedRectRadius="12" basicInfo-polygonSides="6" basicInfo-starPoints="5" bounding="rect(-12.3291,-14.5589,24.6582,29.1178)" text="" font-familyName="" font-pixelSize="20" font-bold="0" font-underline="0" font-alignment="1" strokeStyle="0" markerStart="0" markerEnd="0" shadowEnabled="0" shadowOffsetX="0" shadowOffsetY="2" shadowBlur="4" shadowOpacity="160" blurEnabled="0" blurRadius="4" transform="matrix(1,0,0,1,299.122,112.049)" pers-center="0,0" pers-size="0,0" pers-start="0,0" pers-end="0,0" locked="0" mesh="" flag=""/>
            <path id="shapePath8" d="M293.775,98.9299 C297.87,96.9814 302.994,96.8613 306.854,99.4921 C308.925,100.873 310.188,103.209 311.18,105.523 C309.314,106.424 307.457,107.341 305.591,108.247 C305.013,106.861 304.292,105.458 303.014,104.683 C300.227,102.723 296.198,104.072 294.629,107.117 C292.905,110.441 293.064,114.879 295.14,117.99 C297.124,120.899 301.562,121.134 303.873,118.557 C304.891,117.597 305.443,116.243 306,114.955 C307.826,115.981 309.656,116.985 311.451,118.061 C309.953,121.87 307.048,125.249 303.162,126.199 C299.384,127.061 295.119,126.646 291.939,124.114 C288.293,121.33 286.632,116.341 286.805,111.675 C286.744,106.522 289.239,101.113 293.775,98.9299 Z" style="stroke:none;fill-rule:evenodd;fill:#000000;fill-opacity:1;"/>
        </g>
        <g id="Shape9">
            <desc shapeID="9" type="0" basicInfo-basicType="0" basicInfo-roundedRectRadius="12" basicInfo-polygonSides="6" basicInfo-starPoints="5" bounding="rect(-3.196,-13.8511,6.392,27.7022)" text="" font-familyName="" font-pixelSize="20" font-bold="0" font-underline="0" font-alignment="1" strokeStyle="0" markerStart="0" markerEnd="0" shadowEnabled="0" shadowOffsetX="0" shadowOffsetY="2" shadowBlur="4" shadowOpacity="160" blurEnabled="0" blurRadius="4" transform="matrix(1,0,0,1,317.372,112.031)" pers-center="0,0" pers-size="0,0" pers-start="0,0" pers-end="0,0" locked="0" mesh="" flag=""/>
            <path id="shapePath9" d="M314.176,98.1822 C316.308,98.1767 318.435,98.1822 320.568,98.1822 C320.568,107.412 320.568,116.647 320.568,125.882 C318.435,125.882 316.308,125.882 314.176,125.882 C314.176,116.647 314.176,107.417 314.176,98.1822 Z" style="stroke:none;fill-rule:evenodd;fill:#000000;fill-opacity:1;"/>
        </g>
        <g id="Shape10">
            <desc shapeID="10" type="0" basicInfo-basicType="0" basicInfo-roundedRectRadius="12" basicInfo-polygonSides="6" basicInfo-starPoints="5" bounding="rect(-51.5311,-55.7962,103.062,111.592)" text="" font-familyName="" font-pixelSize="20" font-bold="0" font-underline="0" font-alignment="1" strokeStyle="0" markerStart="0" markerEnd="0" shadowEnabled="0" shadowOffsetX="0" shadowOffsetY="2" shadowBlur="4" shadowOpacity="160" blurEnabled="0" blurRadius="4" transform="matrix(1,0,0,1.08303,417.022,113.485)" pers-center="0,0" pers-size="0,0" pers-start="0,0" pers-end="0,0" locked="0" mesh="" flag=""/>
            <path id="shapePath10" d="M434.671,124.386 L417.14,70.9907 L398.509,124.386 L434.671,124.386 M408.964,53.0553 L426.652,53.0553 L468.553,173.913 L451.415,173.913 L439.702,137.714 L394.028,137.714 L381.528,173.913 L365.491,173.913 L408.964,53.0553 Z" style="stroke:#323232;stroke-opacity:1;stroke-width:1;stroke-linejoin:miter;stroke-miterlimit:2;stroke-linecap:round;fill-rule:evenodd;fill:#00998a;fill-opacity:1;"/>
        </g>
        <g id="Shape11">
            <desc shapeID="11" type="2" basicInfo-basicType="0" basicInfo-roundedRectRadius="12" basicInfo-polygonSides="6" basicInfo-starPoints="5" bounding="rect(-196.97,-10.7049,393.941,21.4098)" text="R and Open Science Association" font-familyName="Lucida Grande" font-pixelSize="20" font-bold="1" font-underline="0" font-alignment="1" strokeStyle="0" markerStart="0" markerEnd="0" shadowEnabled="0" shadowOffsetX="0" shadowOffsetY="2" shadowBlur="4" shadowOpacity="160" blurEnabled="0" blurRadius="4" transform="matrix(1,0,0,1,249.355,200.717)" pers-center="0,0" pers-size="0,0" pers-start="0,0" pers-end="0,0" locked="0" mesh="" flag=""/>
            <path id="shapePath11" d="M87.1773,208.342 L87.1773,193.889 L92.5874,193.889 C95.5236,193.889 96.9917,195.084 96.9917,197.473 C96.9917,198.365 96.7427,199.177 96.2446,199.909 C95.7466,200.642 95.0614,201.203 94.189,201.594 L98.9155,208.342 L95.2534,208.342 L91.6694,202.434 L90.0093,202.434 L90.0093,208.342 L87.1773,208.342 M90.0093,200.451 L90.7027,200.451 C92.8836,200.451 93.9741,199.569 93.9741,197.805 C93.9741,196.516 93.0008,195.871 91.0542,195.871 L90.0093,195.871 L90.0093,200.451 M112.806,207.19 C111.843,208.121 110.811,208.586 109.71,208.586 C108.773,208.586 108.011,208.3 107.425,207.727 C106.839,207.154 106.546,206.412 106.546,205.5 C106.546,204.315 107.02,203.402 107.967,202.761 C108.915,202.12 110.27,201.799 112.035,201.799 L112.806,201.799 L112.806,200.822 C112.806,199.709 112.171,199.153 110.902,199.153 C109.776,199.153 108.636,199.472 107.484,200.11 L107.484,198.117 C108.792,197.623 110.088,197.375 111.371,197.375 C114.177,197.375 115.58,198.492 115.58,200.725 L115.58,205.471 C115.58,206.311 115.85,206.731 116.39,206.731 C116.488,206.731 116.615,206.718 116.771,206.692 L116.839,208.313 C116.227,208.495 115.687,208.586 115.218,208.586 C114.033,208.586 113.272,208.121 112.933,207.19 L112.806,207.19 M112.806,205.637 L112.806,203.459 L112.123,203.459 C110.254,203.459 109.32,204.045 109.32,205.217 C109.32,205.614 109.455,205.948 109.725,206.218 C109.995,206.488 110.329,206.623 110.726,206.623 C111.403,206.623 112.097,206.294 112.806,205.637 M119.302,208.342 L119.302,197.619 L122.193,197.619 L122.193,199.641 C123.137,198.13 124.354,197.375 125.845,197.375 C126.802,197.375 127.557,197.678 128.111,198.283 C128.664,198.889 128.941,199.716 128.941,200.764 L128.941,208.342 L126.05,208.342 L126.05,201.477 C126.05,200.259 125.647,199.651 124.839,199.651 C123.921,199.651 123.039,200.298 122.193,201.594 L122.193,208.342 L119.302,208.342 M139.175,208.342 L139.175,206.321 C138.433,207.831 137.264,208.586 135.669,208.586 C134.38,208.586 133.368,208.114 132.632,207.17 C131.897,206.226 131.529,204.927 131.529,203.274 C131.529,201.477 131.944,200.044 132.774,198.977 C133.604,197.909 134.719,197.375 136.119,197.375 C137.238,197.375 138.257,197.818 139.175,198.703 L139.175,192.922 L142.076,192.922 L142.076,208.342 L139.175,208.342 M139.175,200.422 C138.479,199.641 137.733,199.25 136.939,199.25 C136.229,199.25 135.663,199.592 135.24,200.276 C134.817,200.959 134.605,201.877 134.605,203.029 C134.605,205.224 135.308,206.321 136.714,206.321 C137.574,206.321 138.394,205.77 139.175,204.67 L139.175,200.422 M158.593,208.703 C156.399,208.703 154.645,208.013 153.33,206.633 C152.014,205.253 151.357,203.414 151.357,201.115 C151.357,198.791 152.018,196.946 153.339,195.578 C154.661,194.211 156.445,193.528 158.691,193.528 C160.924,193.528 162.703,194.211 164.028,195.578 C165.353,196.946 166.015,198.781 166.015,201.086 C166.015,203.443 165.353,205.302 164.028,206.662 C162.703,208.023 160.891,208.703 158.593,208.703 M158.632,206.711 C159.921,206.711 160.942,206.205 161.694,205.193 C162.446,204.18 162.822,202.808 162.822,201.076 C162.822,199.397 162.444,198.049 161.689,197.033 C160.934,196.018 159.934,195.51 158.691,195.51 C157.434,195.51 156.43,196.018 155.678,197.033 C154.926,198.049 154.55,199.406 154.55,201.106 C154.55,202.792 154.925,204.148 155.673,205.173 C156.422,206.198 157.408,206.711 158.632,206.711 M168.709,212.199 L168.709,197.619 L171.599,197.619 L171.599,199.641 C172.341,198.13 173.51,197.375 175.105,197.375 C176.394,197.375 177.408,197.847 178.147,198.791 C178.886,199.735 179.255,201.034 179.255,202.688 C179.255,204.485 178.839,205.917 178.005,206.985 C177.172,208.052 176.056,208.586 174.656,208.586 C173.529,208.586 172.511,208.143 171.599,207.258 L171.599,212.199 L168.709,212.199 M171.599,205.539 C172.302,206.321 173.051,206.711 173.845,206.711 C174.555,206.711 175.121,206.368 175.544,205.681 C175.968,204.994 176.179,204.078 176.179,202.932 C176.179,200.738 175.473,199.641 174.06,199.641 C173.207,199.641 172.387,200.191 171.599,201.291 L171.599,205.539 M190.689,207.981 C189.315,208.384 188.013,208.586 186.783,208.586 C184.992,208.586 183.58,208.078 182.544,207.063 C181.509,206.047 180.992,204.66 180.992,202.903 C180.992,201.242 181.465,199.906 182.413,198.894 C183.36,197.881 184.612,197.375 186.167,197.375 C187.737,197.375 188.882,197.87 189.605,198.86 C190.328,199.849 190.689,201.415 190.689,203.557 L184.039,203.557 C184.234,205.601 185.357,206.623 187.408,206.623 C188.378,206.623 189.472,206.399 190.689,205.949 L190.689,207.981 M184,201.926 L187.847,201.926 C187.847,200.097 187.258,199.182 186.08,199.182 C184.882,199.182 184.188,200.097 184,201.926 M193.677,208.342 L193.677,197.619 L196.568,197.619 L196.568,199.641 C197.512,198.13 198.729,197.375 200.22,197.375 C201.177,197.375 201.932,197.678 202.486,198.283 C203.039,198.889 203.316,199.716 203.316,200.764 L203.316,208.342 L200.425,208.342 L200.425,201.477 C200.425,200.259 200.022,199.651 199.214,199.651 C198.296,199.651 197.414,200.298 196.568,201.594 L196.568,208.342 L193.677,208.342 M212.57,208.215 L212.57,205.735 C214.126,206.386 215.457,206.711 216.564,206.711 C217.339,206.711 217.949,206.539 218.395,206.194 C218.841,205.849 219.064,205.38 219.064,204.787 C219.064,204.319 218.924,203.923 218.644,203.601 C218.364,203.279 217.834,202.896 217.052,202.453 L216.085,201.916 C214.79,201.187 213.875,200.489 213.341,199.821 C212.807,199.154 212.541,198.375 212.541,197.483 C212.541,196.291 212.978,195.334 213.854,194.612 C214.73,193.889 215.887,193.528 217.326,193.528 C218.478,193.528 219.777,193.694 221.222,194.026 L221.222,196.34 C219.744,195.787 218.576,195.51 217.716,195.51 C217.052,195.51 216.52,195.658 216.12,195.954 C215.719,196.251 215.519,196.64 215.519,197.121 C215.519,197.518 215.659,197.867 215.939,198.166 C216.219,198.466 216.746,198.834 217.521,199.27 L218.556,199.846 C219.949,200.627 220.91,201.347 221.437,202.004 C221.964,202.662 222.228,203.462 222.228,204.406 C222.228,205.748 221.73,206.799 220.734,207.561 C219.738,208.322 218.364,208.703 216.613,208.703 C215.454,208.703 214.106,208.541 212.57,208.215 M232.712,208.108 C231.514,208.427 230.404,208.586 229.382,208.586 C227.67,208.586 226.318,208.083 225.325,207.077 C224.332,206.071 223.835,204.703 223.835,202.971 C223.835,201.22 224.347,199.849 225.369,198.86 C226.391,197.87 227.804,197.375 229.607,197.375 C230.479,197.375 231.485,197.515 232.625,197.795 L232.625,199.885 C231.44,199.501 230.492,199.309 229.783,199.309 C228.917,199.309 228.22,199.641 227.693,200.305 C227.166,200.969 226.902,201.851 226.902,202.951 C226.902,204.078 227.187,204.979 227.756,205.656 C228.326,206.334 229.086,206.672 230.037,206.672 C230.903,206.672 231.794,206.483 232.712,206.106 L232.712,208.108 M235.443,208.342 L235.443,197.619 L238.334,197.619 L238.334,208.342 L235.443,208.342 M235.443,195.813 L235.443,193.401 L238.334,193.401 L238.334,195.813 L235.443,195.813 M250.673,207.981 C249.3,208.384 247.998,208.586 246.767,208.586 C244.977,208.586 243.564,208.078 242.529,207.063 C241.494,206.047 240.976,204.66 240.976,202.903 C240.976,201.242 241.45,199.906 242.397,198.894 C243.344,197.881 244.596,197.375 246.152,197.375 C247.721,197.375 248.867,197.87 249.589,198.86 C250.312,199.849 250.673,201.415 250.673,203.557 L244.023,203.557 C244.218,205.601 245.341,206.623 247.392,206.623 C248.362,206.623 249.456,206.399 250.673,205.949 L250.673,207.981 M243.984,201.926 L247.832,201.926 C247.832,200.097 247.242,199.182 246.064,199.182 C244.866,199.182 244.173,200.097 243.984,201.926 M253.662,208.342 L253.662,197.619 L256.552,197.619 L256.552,199.641 C257.496,198.13 258.714,197.375 260.205,197.375 C261.162,197.375 261.917,197.678 262.47,198.283 C263.024,198.889 263.3,199.716 263.3,200.764 L263.3,208.342 L260.41,208.342 L260.41,201.477 C260.41,200.259 260.006,199.651 259.199,199.651 C258.281,199.651 257.399,200.298 256.552,201.594 L256.552,208.342 L253.662,208.342 M274.697,208.108 C273.499,208.427 272.389,208.586 271.367,208.586 C269.654,208.586 268.302,208.083 267.309,207.077 C266.316,206.071 265.82,204.703 265.82,202.971 C265.82,201.22 266.331,199.849 267.353,198.86 C268.375,197.87 269.788,197.375 271.591,197.375 C272.464,197.375 273.47,197.515 274.609,197.795 L274.609,199.885 C273.424,199.501 272.477,199.309 271.767,199.309 C270.901,199.309 270.205,199.641 269.677,200.305 C269.15,200.969 268.886,201.851 268.886,202.951 C268.886,204.078 269.171,204.979 269.741,205.656 C270.31,206.334 271.07,206.672 272.021,206.672 C272.887,206.672 273.779,206.483 274.697,206.106 L274.697,208.108 M286.158,207.981 C284.784,208.384 283.482,208.586 282.251,208.586 C280.461,208.586 279.048,208.078 278.013,207.063 C276.978,206.047 276.46,204.66 276.46,202.903 C276.46,201.242 276.934,199.906 277.881,198.894 C278.829,197.881 280.08,197.375 281.636,197.375 C283.205,197.375 284.351,197.87 285.074,198.86 C285.796,199.849 286.158,201.415 286.158,203.557 L279.507,203.557 C279.703,205.601 280.826,206.623 282.876,206.623 C283.847,206.623 284.94,206.399 286.158,205.949 L286.158,207.981 M279.468,201.926 L283.316,201.926 C283.316,200.097 282.727,199.182 281.548,199.182 C280.35,199.182 279.657,200.097 279.468,201.926 M294.142,208.342 L299.767,193.889 L302.775,193.889 L308.4,208.342 L305.314,208.342 L303.81,204.485 L297.833,204.485 L296.33,208.342 L294.142,208.342 M298.576,202.561 L303.068,202.561 L300.822,196.799 L298.576,202.561 M310.16,208 L310.16,205.881 C311.592,206.48 312.816,206.779 313.832,206.779 C315.016,206.779 315.609,206.376 315.609,205.569 C315.609,205.048 315.121,204.592 314.144,204.201 L313.167,203.811 C312.106,203.381 311.348,202.919 310.892,202.424 C310.436,201.929 310.208,201.317 310.208,200.588 C310.208,199.572 310.596,198.783 311.371,198.22 C312.145,197.657 313.229,197.375 314.623,197.375 C315.495,197.375 316.533,197.502 317.738,197.756 L317.738,199.787 C316.579,199.384 315.619,199.182 314.857,199.182 C313.659,199.182 313.06,199.553 313.06,200.295 C313.06,200.783 313.503,201.197 314.388,201.535 L315.228,201.858 C316.485,202.333 317.359,202.815 317.85,203.303 C318.342,203.791 318.587,204.419 318.587,205.188 C318.587,206.197 318.169,207.016 317.333,207.644 C316.496,208.272 315.407,208.586 314.066,208.586 C312.777,208.586 311.475,208.391 310.16,208 M321.457,208 L321.457,205.881 C322.889,206.48 324.113,206.779 325.128,206.779 C326.313,206.779 326.906,206.376 326.906,205.569 C326.906,205.048 326.417,204.592 325.441,204.201 L324.464,203.811 C323.403,203.381 322.645,202.919 322.189,202.424 C321.733,201.929 321.505,201.317 321.505,200.588 C321.505,199.572 321.893,198.783 322.667,198.22 C323.442,197.657 324.526,197.375 325.919,197.375 C326.792,197.375 327.83,197.502 329.035,197.756 L329.035,199.787 C327.876,199.384 326.916,199.182 326.154,199.182 C324.956,199.182 324.357,199.553 324.357,200.295 C324.357,200.783 324.8,201.197 325.685,201.535 L326.525,201.858 C327.781,202.333 328.655,202.815 329.147,203.303 C329.639,203.791 329.884,204.419 329.884,205.188 C329.884,206.197 329.466,207.016 328.629,207.644 C327.793,208.272 326.704,208.586 325.363,208.586 C324.074,208.586 322.772,208.391 321.457,208 M337.539,208.586 C335.865,208.586 334.536,208.08 333.549,207.068 C332.563,206.055 332.07,204.693 332.07,202.981 C332.07,201.249 332.566,199.882 333.559,198.879 C334.552,197.876 335.901,197.375 337.607,197.375 C339.319,197.375 340.672,197.876 341.665,198.879 C342.657,199.882 343.154,201.242 343.154,202.961 C343.154,204.719 342.656,206.096 341.66,207.092 C340.664,208.088 339.29,208.586 337.539,208.586 M337.587,206.779 C339.248,206.779 340.078,205.507 340.078,202.961 C340.078,201.796 339.858,200.875 339.418,200.197 C338.979,199.52 338.375,199.182 337.607,199.182 C336.845,199.182 336.245,199.52 335.805,200.197 C335.366,200.875 335.146,201.802 335.146,202.981 C335.146,204.146 335.364,205.071 335.8,205.754 C336.237,206.438 336.832,206.779 337.587,206.779 M353.712,208.108 C352.514,208.427 351.404,208.586 350.382,208.586 C348.67,208.586 347.318,208.083 346.325,207.077 C345.332,206.071 344.835,204.703 344.835,202.971 C344.835,201.22 345.347,199.849 346.369,198.86 C347.391,197.87 348.804,197.375 350.607,197.375 C351.479,197.375 352.485,197.515 353.625,197.795 L353.625,199.885 C352.44,199.501 351.492,199.309 350.783,199.309 C349.917,199.309 349.22,199.641 348.693,200.305 C348.166,200.969 347.902,201.851 347.902,202.951 C347.902,204.078 348.187,204.979 348.756,205.656 C349.326,206.334 350.086,206.672 351.037,206.672 C351.903,206.672 352.794,206.483 353.712,206.106 L353.712,208.108 M356.443,208.342 L356.443,197.619 L359.333,197.619 L359.333,208.342 L356.443,208.342 M356.443,195.813 L356.443,193.401 L359.333,193.401 L359.333,195.813 L356.443,195.813 M368.197,207.19 C367.233,208.121 366.201,208.586 365.101,208.586 C364.164,208.586 363.402,208.3 362.816,207.727 C362.23,207.154 361.937,206.412 361.937,205.5 C361.937,204.315 362.411,203.402 363.358,202.761 C364.305,202.12 365.661,201.799 367.425,201.799 L368.197,201.799 L368.197,200.822 C368.197,199.709 367.562,199.153 366.292,199.153 C365.166,199.153 364.027,199.472 362.875,200.11 L362.875,198.117 C364.183,197.623 365.479,197.375 366.761,197.375 C369.567,197.375 370.97,198.492 370.97,200.725 L370.97,205.471 C370.97,206.311 371.24,206.731 371.781,206.731 C371.878,206.731 372.005,206.718 372.162,206.692 L372.23,208.313 C371.618,208.495 371.078,208.586 370.609,208.586 C369.424,208.586 368.662,208.121 368.324,207.19 L368.197,207.19 M368.197,205.637 L368.197,203.459 L367.513,203.459 C365.645,203.459 364.71,204.045 364.71,205.217 C364.71,205.614 364.846,205.948 365.116,206.218 C365.386,206.488 365.72,206.623 366.117,206.623 C366.794,206.623 367.487,206.294 368.197,205.637 M380.22,208.283 C379.53,208.485 378.987,208.586 378.589,208.586 C376.083,208.586 374.83,207.414 374.83,205.071 L374.83,199.426 L373.628,199.426 L373.628,197.619 L374.83,197.619 L374.83,195.813 L377.72,195.481 L377.72,197.619 L380.015,197.619 L380.015,199.426 L377.72,199.426 L377.72,204.69 C377.72,206.005 378.257,206.662 379.332,206.662 C379.579,206.662 379.875,206.617 380.22,206.526 L380.22,208.283 M382.787,208.342 L382.787,197.619 L385.677,197.619 L385.677,208.342 L382.787,208.342 M382.787,195.813 L382.787,193.401 L385.677,193.401 L385.677,195.813 L382.787,195.813 M393.789,208.586 C392.115,208.586 390.786,208.08 389.799,207.068 C388.813,206.055 388.32,204.693 388.32,202.981 C388.32,201.249 388.816,199.882 389.809,198.879 C390.802,197.876 392.151,197.375 393.857,197.375 C395.569,197.375 396.922,197.876 397.915,198.879 C398.907,199.882 399.404,201.242 399.404,202.961 C399.404,204.719 398.906,206.096 397.91,207.092 C396.914,208.088 395.54,208.586 393.789,208.586 M393.837,206.779 C395.498,206.779 396.328,205.507 396.328,202.961 C396.328,201.796 396.108,200.875 395.668,200.197 C395.229,199.52 394.625,199.182 393.857,199.182 C393.095,199.182 392.495,199.52 392.055,200.197 C391.616,200.875 391.396,201.802 391.396,202.981 C391.396,204.146 391.614,205.071 392.05,205.754 C392.487,206.438 393.082,206.779 393.837,206.779 M402.052,208.342 L402.052,197.619 L404.943,197.619 L404.943,199.641 C405.887,198.13 407.104,197.375 408.595,197.375 C409.552,197.375 410.307,197.678 410.861,198.283 C411.414,198.889 411.691,199.716 411.691,200.764 L411.691,208.342 L408.8,208.342 L408.8,201.477 C408.8,200.259 408.397,199.651 407.589,199.651 C406.671,199.651 405.789,200.298 404.943,201.594 L404.943,208.342 L402.052,208.342 Z" style="stroke:none;fill-rule:nonzero;fill:#000000;fill-opacity:1;"/>
        </g>
    </g>
</svg>
